<?xml version="1.0" encoding="UTF-8"?><svg id="Layer_1" xmlns="http://www.w3.org/2000/svg" viewBox="0 0 274.83 112.37"><defs><style>.cls-1,.cls-2{fill:#fff;}.cls-2{fill-rule:evenodd;}</style></defs><path class="cls-1" d="m41.57,14.11c2.66-.51,5.41-.79,8.22-.79,3.01,0,5.95.31,8.79.89l9.49-2.05.28-1.31c-5.74-2.32-12-3.6-18.56-3.6-2.24,0-4.44.16-6.6.45l-1.62,6.41Z"/><g><path class="cls-1" d="m57.46,100.07c-2.49.44-5.05.69-7.67.69-24.1,0-43.71-19.61-43.71-43.72,0-13.19,5.88-25.02,15.15-33.04l2.03-9.05C9.29,23.78,0,39.34,0,57.04c0,27.46,22.34,49.79,49.79,49.79,2.1,0,4.17-.15,6.21-.4l1.46-6.36Z"/><path class="cls-1" d="m85.23,22.12l-5.93,1.28-.26,1.19c8.87,8.01,14.46,19.59,14.46,32.45,0,13.76-6.4,26.05-16.37,34.07l-1.98,8.75c14.61-8.69,24.43-24.63,24.43-42.82,0-13.6-5.48-25.93-14.35-34.93Z"/></g><path class="cls-2" d="m76.85,14.62l-3.16-14.62-3.16,14.62-14.62,3.16,14.62,3.16,3.16,14.62,3.16-14.62,14.62-3.16-14.62-3.16Zm-1.88,4.4l-1.24,5.71-1.24-5.71-5.71-1.24,5.71-1.24,1.24-5.71,1.24,5.71,5.71,1.24-5.71,1.24Z"/><g><path class="cls-1" d="m121.54,47.37c-2.31,0-3.3,2.89-3.3,4.81,0,1.28.69,2.09,2.02,2.09,1.42,0,1.95-.8,2.56-1.95h4.19c-1.07,3.07-3.11,5.06-6.5,5.06s-6.14-1.6-6.12-5.36c0-4.35,3.04-7.76,7.47-7.76,2.82,0,5.18,1.3,5.5,4.3.02.21.04.43.05.64h-3.98c-.04-1.12-.78-1.83-1.9-1.83Z"/><path class="cls-1" d="m134,44.58l-.96,4.4c.92-.73,1.94-1.17,3.12-1.17,1.47,0,2.77,1.05,2.77,2.57,0,.16-.02.32-.05.48l-1.3,6.27h-3.55c.25-1.21.55-2.41.8-3.62.11-.5.32-1.28.32-1.79,0-.8-.14-1.22-1.03-1.22-1.19,0-1.79,1.79-2.01,2.73l-.85,3.91h-3.57l2.7-12.55h3.6Z"/><path class="cls-1" d="m146.52,47.67c1.72,0,4.92.07,4.92,2.48,0,2.2-1.08,4.24-1.08,6.48,0,.16,0,.32.02.48h-3.62v-.85c-.91.55-1.92,1.1-3,1.1-1.78,0-3.21-.85-3.21-2.79,0-4.15,7.44-2.52,7.44-4.08,0-.78-.67-.78-1.24-.8-.76,0-1.15.34-1.47,1.01h-3.75c.55-2.38,2.84-3.02,5.01-3.04Zm-1.38,7.58c1.44,0,2.13-1.31,2.38-2.52-.6.16-1.21.32-1.81.48-.68.16-1.69.28-1.69,1.19,0,.64.57.85,1.12.85Z"/><path class="cls-1" d="m157.84,48.1v1.03c.91-.87,1.67-1.31,2.96-1.31,1.37,0,2.77.99,2.77,2.45,0,.62-.12,1.23-.27,1.85-.37,1.67-.75,3.34-1.12,5.01l-3.6-.02c.52-1.79.82-3.66,1.17-5.49.02-.11.04-.21.04-.32,0-.51-.41-.91-.92-.91-1.24,0-1.67,2.13-1.88,3.07-.25,1.23-.48,2.45-.76,3.66h-3.55l1.94-9.02h3.23Z"/><path class="cls-1" d="m169.56,58.15c1.24,0,1.54-1.49,1.72-2.45-.96.57-1.47.91-2.63.91-2.2,0-3.46-1.65-3.48-3.77,0-2.77,1.85-5.02,4.74-5.02,1.28,0,1.86.48,2.86,1.19l.28-.91h3.18l-1.01,4.83c-.91,4.28-.69,7.35-6.11,7.35-2.16,0-4.21-.27-4.21-2.95h3.51c.25.5.55.82,1.14.82Zm.53-3.78c1.17,0,2-1.81,2.02-2.8,0-.82-.73-1.47-1.54-1.49-1.19,0-1.95,1.67-1.95,2.7,0,.92.51,1.6,1.47,1.6Z"/><path class="cls-1" d="m182.53,48.1l-1.93,9.02h-3.57l1.94-9.02h3.57Zm.75-3.52l-.53,2.5h-3.59l.55-2.5h3.57Z"/><path class="cls-1" d="m188.16,48.1v1.03c.91-.87,1.67-1.31,2.96-1.31,1.37,0,2.77.99,2.77,2.45,0,.62-.12,1.23-.27,1.85-.37,1.67-.75,3.34-1.12,5.01l-3.6-.02c.52-1.79.82-3.66,1.17-5.49.02-.11.03-.21.03-.32,0-.51-.41-.91-.92-.91-1.24,0-1.67,2.13-1.88,3.07-.25,1.23-.48,2.45-.76,3.66h-3.55l1.94-9.02h3.23Z"/><path class="cls-1" d="m199.88,58.15c1.24,0,1.54-1.49,1.72-2.45-.96.57-1.47.91-2.63.91-2.2,0-3.46-1.65-3.48-3.77,0-2.77,1.85-5.02,4.74-5.02,1.28,0,1.86.48,2.86,1.19l.28-.91h3.18l-1.01,4.83c-.91,4.28-.69,7.35-6.11,7.35-2.17,0-4.21-.27-4.21-2.95h3.51c.25.5.55.82,1.14.82Zm.53-3.78c1.17,0,2-1.81,2.02-2.8,0-.82-.73-1.47-1.54-1.49-1.19,0-1.95,1.67-1.95,2.7,0,.92.51,1.6,1.47,1.6Z"/><path class="cls-1" d="m132.13,64.6l-.97,3.99c.71-.7,1.65-1.27,2.66-1.25,1.16,0,2.07.75,2.07,1.96v.04l-1.3,6.24h-1.47l1.21-5.69c.03-.12.06-.25.06-.37,0-.55-.4-.97-.95-.97-1.48,0-2.49,1.38-2.77,2.71l-.9,4.27h-1.42l2.33-10.94h1.45Z"/><path class="cls-1" d="m145.21,70.57c0,2.45-1.64,5.22-4.33,5.22-2.28,0-3.35-1.41-3.35-3.6,0-2.45,1.76-4.94,4.38-4.94,1.93,0,3.31,1.41,3.31,3.32Zm-1.45.03c0-1.15-.77-2.08-1.96-2.08-1.79,0-2.86,2.14-2.86,3.72,0,1.22.61,2.31,1.96,2.31,1.9,0,2.86-2.33,2.86-3.95Z"/><path class="cls-1" d="m148.57,73.23c0,.34-.01.67-.04,1.01.52-2.39,1.8-4.53,2.78-6.73h1.52c.09,1.79.28,3.57.28,5.36,0,.46-.03.92-.05,1.38.75-2.33,1.93-4.48,2.92-6.7h1.64l-4.15,8.03h-1.42c-.06-1.88-.29-3.75-.29-5.63,0-.37.02-.73.03-1.1-.71,2.33-1.84,4.48-2.8,6.7h-1.38l-.96-8.04h1.49c.12,1.91.44,3.81.44,5.72Z"/><path class="cls-1" d="m163.08,68.58l.21-1.06h1.27c.34-1.76.28-2.95,2.46-2.95.26,0,.52.02.78.02l-.28,1.32c-.14-.02-.28-.03-.41-.03-1.09,0-.93.86-1.13,1.64h1.47l-.26,1.07h-1.45l-1.41,6.96h-1.44l1.39-6.96h-1.21Z"/><path class="cls-1" d="m175.42,70.57c0,2.45-1.64,5.22-4.33,5.22-2.28,0-3.35-1.41-3.35-3.6,0-2.45,1.76-4.94,4.38-4.94,1.93,0,3.31,1.41,3.31,3.32Zm-1.45.03c0-1.15-.77-2.08-1.96-2.08-1.79,0-2.86,2.14-2.86,3.72,0,1.22.61,2.31,1.96,2.31,1.9,0,2.86-2.33,2.86-3.95Z"/><path class="cls-1" d="m184.51,70.57c0,2.45-1.64,5.22-4.33,5.22-2.28,0-3.35-1.41-3.35-3.6,0-2.45,1.76-4.94,4.38-4.94,1.93,0,3.31,1.41,3.31,3.32Zm-1.45.03c0-1.15-.77-2.08-1.96-2.08-1.79,0-2.86,2.14-2.86,3.72,0,1.22.61,2.31,1.96,2.31,1.9,0,2.86-2.33,2.86-3.95Z"/><path class="cls-1" d="m194.41,64.67l-2.33,10.88h-1.3l.25-1.07c-.67.78-1.42,1.21-2.46,1.21-1.99,0-2.8-1.81-2.8-3.55,0-2.16,1.77-4.82,4.12-4.82,1.09,0,1.75.43,2.33,1.33l.83-3.98h1.38Zm-2.69,5.82c0-1.04-.61-1.9-1.71-1.9-1.77,0-2.77,2.28-2.77,3.81,0,1.13.52,1.99,1.74,1.99,1.84,0,2.74-2.37,2.74-3.9Z"/><path class="cls-1" d="m202.8,67.54l-1.75,8.03h-1.47l1.71-8.03h1.5Zm.6-2.85l-.34,1.58h-1.49l.37-1.58h1.45Z"/><path class="cls-1" d="m204.97,72.79c0,1.21.75,1.81,1.9,1.81.63,0,1.64-.32,1.64-1.07,0-1.82-3.86-1.3-3.84-3.92,0-1.58,1.62-2.3,2.97-2.3,1.85,0,2.74.9,3.01,2.68h-1.38c-.21-.96-.7-1.53-1.73-1.53-.52,0-1.45.38-1.45,1,0,1.53,3.92,1.24,3.92,3.84,0,1.68-1.62,2.48-3.11,2.48-1.97,0-3.34-.98-3.32-3.06v-.18h1.41c-.02.09-.02.18-.02.26Z"/><path class="cls-1" d="m217.6,72.79c0,1.21.75,1.81,1.9,1.81.63,0,1.64-.32,1.64-1.07,0-1.82-3.86-1.3-3.84-3.92,0-1.58,1.62-2.3,2.97-2.3,1.85,0,2.74.9,3.01,2.68h-1.38c-.21-.96-.7-1.53-1.73-1.53-.52,0-1.45.38-1.45,1,0,1.53,3.92,1.24,3.92,3.84,0,1.68-1.62,2.48-3.11,2.48-1.97,0-3.34-.98-3.32-3.06v-.18h1.41c-.02.09-.02.18-.02.26Z"/><path class="cls-1" d="m225.76,71.93c-.03.11-.03.22-.03.32,0,1.21.54,2.25,1.88,2.25.96,0,1.56-.44,2.08-1.22l1.55.02c-.76,1.51-1.87,2.49-3.64,2.49-2.16,0-3.24-1.38-3.23-3.46,0-2.51,1.47-5.08,4.24-5.08,1.99,0,3.14,1.3,3.14,3.26,0,.47-.03.95-.12,1.41h-5.86v.02Zm4.61-1.41c0-1.15-.51-2.05-1.76-2.06-1.5,0-2.17,1.07-2.6,2.37h4.35c.02-.11.02-.21.02-.31Z"/><path class="cls-1" d="m235.96,67.52l-.49,1.73c.66-.93,1.12-1.79,2.4-1.79.27,0,.57.08.84.15l-.43,1.42c-.31-.09-.63-.11-.95-.11-1.67,0-2.04,2.34-2.33,3.57-.23,1.01-.43,2.02-.66,3.03h-1.41l1.67-8h1.35Z"/><path class="cls-1" d="m240.56,67.54c.23,2.28.57,4.56.61,6.86.95-2.37,2.22-4.59,3.35-6.87h1.64l-4.42,8.04h-1.56l-1.12-8.04h1.5v.02Z"/><path class="cls-1" d="m247.76,71.93c-.03.11-.03.22-.03.32,0,1.21.54,2.25,1.88,2.25.96,0,1.56-.44,2.08-1.22l1.55.02c-.76,1.51-1.87,2.49-3.64,2.49-2.16,0-3.24-1.38-3.23-3.46,0-2.51,1.47-5.08,4.24-5.08,1.99,0,3.14,1.3,3.14,3.26,0,.47-.03.95-.12,1.41h-5.86v.02Zm4.61-1.41c0-1.15-.5-2.05-1.76-2.06-1.5,0-2.17,1.07-2.6,2.37h4.34c.02-.11.02-.21.02-.31Z"/><path class="cls-1" d="m263.69,64.67l-2.33,10.88h-1.3l.25-1.07c-.67.78-1.42,1.21-2.46,1.21-1.99,0-2.8-1.81-2.8-3.55,0-2.16,1.77-4.82,4.12-4.82,1.09,0,1.75.43,2.33,1.33l.83-3.98h1.38Zm-2.69,5.82c0-1.04-.61-1.9-1.71-1.9-1.78,0-2.77,2.28-2.77,3.81,0,1.13.52,1.99,1.74,1.99,1.84,0,2.74-2.37,2.74-3.9Z"/><path class="cls-1" d="m266,73.9l-.34,1.65h-1.65l.34-1.65h1.65Z"/></g><path class="cls-1" d="m85.62,109.41c0,1.66-1.3,2.96-3,2.96s-3.02-1.3-3.02-2.96,1.34-2.93,3.02-2.93,3,1.3,3,2.93Zm-5.26,0c0,1.3.96,2.34,2.28,2.34s2.23-1.04,2.23-2.32-.94-2.36-2.25-2.36-2.27,1.05-2.27,2.34Zm1.8,1.53h-.68v-2.93c.27-.05.64-.09,1.12-.09.55,0,.8.09,1.02.21.16.12.28.36.28.64,0,.32-.25.57-.61.68v.04c.28.11.45.32.53.71.09.45.14.62.22.73h-.73c-.09-.11-.14-.37-.23-.71-.05-.32-.23-.46-.61-.46h-.32v1.18Zm.02-1.66h.32c.37,0,.68-.12.68-.43,0-.27-.2-.45-.62-.45-.18,0-.3.02-.37.04v.84Z"/><path class="cls-1" d="m270.66,64.67v.54h-1.04v2.72h-.65v-2.72h-1.03v-.54h2.72Zm3.53,3.26l-.12-1.92c-.01-.25-.01-.55-.02-.91h-.04c-.08.29-.18.67-.28.97l-.59,1.81h-.67l-.58-1.86c-.06-.24-.17-.64-.24-.92h-.04c0,.3-.01.62-.02.91l-.12,1.92h-.62l.24-3.26h.98l.55,1.6c.08.25.14.49.22.83h.02c.07-.29.16-.58.22-.8l.56-1.62h.95l.24,3.26h-.65Z"/><path class="cls-1" d="m51.72,90.6l7.53-36.32h15.6c1.2,0,2.21-.37,2.58-.65.46-.37,1.01-.83,1.38-1.94l2.49-12.72h-.65c-.28,1.02-.74,1.29-1.2,1.48-.74.28-1.38.18-3.88.18h-40.7L43.63,5.97c.28-1.02.28-1.94-.18-2.68-.74-1.11-1.66-.92-2.86-.92h-18c1.2,0,1.94.55,2.4,1.29.74,1.11.37,2.03-.09,3.97l-9.37,41.76c-.28,1.2,0,2.31.55,3.05.74,1.02,2.03,1.66,3.78,1.66h4.32v.04s18.17.15,18.17.15l-8.08,36.32c-.28,1.11.28,1.85.65,2.21.46.46,1.57.74,2.12.74h17.35c-.65,0-1.66-.46-2.03-.83-.37-.37-.83-1.2-.65-2.12Z"/><path class="cls-1" d="m83.21,64.24c.19-.92.19-1.85-.28-2.58-.46-.74-1.2-1.2-2.58-.92h-17.54c-.92,0,2.12.92,2.58,1.48.46.55.55.83.28,2.03l-10.11,44.07c-.37,1.66,0,2.4.46,2.95.46.55,1.38,1.11,3.78,1.11h16.8c-1.02,0-2.31-.55-2.86-1.29-.56-.74-.83-1.57-.46-2.95l9.92-43.88Z"/></svg>