<?xml version="1.0" encoding="utf-8"?>
<!-- Generator: Adobe Illustrator 28.2.0, SVG Export Plug-In . SVG Version: 6.00 Build 0)  -->
<svg version="1.1" id="Layer_1" xmlns="http://www.w3.org/2000/svg" xmlns:xlink="http://www.w3.org/1999/xlink" x="0px" y="0px"
	 viewBox="0 0 90.6 102.2" style="enable-background:new 0 0 90.6 102.2;" xml:space="preserve">
<style type="text/css">
	.st0{fill:#939598;}
	.st1{fill-rule:evenodd;clip-rule:evenodd;fill:#00447C;}
	.st2{fill:#00447C;}
</style>
<path class="st0" d="M77.5,20.1l-5.4,1.2l-0.2,1.1c8.1,7.3,13.2,17.8,13.2,29.5c0,12.5-5.8,23.7-14.9,31l-1.8,8
	c13.3-7.9,22.2-22.4,22.2-39C90.6,39.5,85.6,28.3,77.5,20.1z"/>
<g>
	<g>
		<path class="st1" d="M69.9,13.3L67,0l-2.9,13.3l-13.3,2.9l13.3,2.9L67,32.4l2.9-13.3l13.3-2.9L69.9,13.3z M68.2,17.3l-1.1,5.2
			L66,17.3l-5.2-1.1l5.2-1.1l1.1-5.2l1.1,5.2l5.2,1.1L68.2,17.3z"/>
	</g>
</g>
<g>
	<path class="st2" d="M75.9,96.9v0.7h-1.3v3.5h-0.8v-3.5h-1.3v-0.7H75.9z M80.4,101l-0.2-2.5c0-0.3,0-0.7,0-1.2h-0.1
		c-0.1,0.4-0.2,0.9-0.3,1.2l-0.8,2.3h-0.9l-0.7-2.4c-0.1-0.3-0.2-0.8-0.3-1.2H77c0,0.4,0,0.8,0,1.2l-0.2,2.5H76l0.3-4.2h1.3l0.7,2
		c0.1,0.3,0.2,0.6,0.3,1.1l0,0c0.1-0.4,0.2-0.7,0.3-1l0.7-2.1h1.2l0.3,4.2L80.4,101L80.4,101z"/>
</g>
<path class="st2" d="M75.7,58.4c0.2-0.8,0.2-1.7-0.2-2.3s-1.1-1.1-2.3-0.8h-16c-0.8,0,1.9,0.8,2.3,1.3s0.5,0.8,0.2,1.8l-9.2,40.1
	c-0.3,1.5,0,2.2,0.4,2.7s1.3,1,3.4,1h15.3c-0.9,0-2.1-0.5-2.6-1.2s-0.8-1.4-0.4-2.7L75.7,58.4z"/>
<g>
	<path class="st0" d="M37.8,12.8c2.4-0.5,4.9-0.7,7.5-0.7c2.7,0,5.4,0.3,8,0.8l8.6-1.9l0.3-1.2c-5.2-2-10.9-3.2-16.9-3.2
		c-2,0-4,0.2-6,0.4L37.8,12.8z"/>
	<path class="st0" d="M5.5,51.9c0-12,5.3-22.8,13.8-30.1l1.9-8.2C8.4,21.6,0,35.8,0,51.9c0,25,20.3,45.3,45.3,45.3
		c1.9,0,3.8-0.1,5.7-0.4l1.3-5.8c-2.3,0.4-4.6,0.6-7,0.6C23.4,91.7,5.5,73.8,5.5,51.9z"/>
</g>
<path class="st2" d="M47,82.4l6.8-33H68c1.1,0,2-0.3,2.3-0.6c0.4-0.3,0.9-0.8,1.3-1.8L74,35.5h-0.6c-0.2,0.9-0.7,1.2-1.1,1.3
	C71.6,37,71,37,68.8,37h-37l8-31.5C40,4.6,40,3.7,39.6,3.1c-0.7-1-1.5-0.8-2.6-0.8H20.5c1.1,0,1.8,0.5,2.2,1.2
	c0.7,1,0.3,1.8-0.1,3.6l-8.5,38c-0.2,1.1,0,2.1,0.5,2.8c0.7,0.9,1.9,1.5,3.4,1.5h4l0,0l16.5,0.1l-7.4,33c-0.2,1,0.2,1.7,0.6,2
	c0.4,0.4,1.4,0.7,1.9,0.7h15.8c-0.6,0-1.5-0.4-1.8-0.8C47.3,84,46.9,83.2,47,82.4z"/>
</svg>
